<svg xmlns="http://www.w3.org/2000/svg" width="1920" height="760" viewBox="0 0 1920 760" preserveAspectRatio="xMidYMid slice">
  <defs>
    <linearGradient id="g1" x1="0" y1="0" x2="1" y2="1">
      <stop offset="0%" stop-color="#071a4a"/>
      <stop offset="55%" stop-color="#0a2f82"/>
      <stop offset="100%" stop-color="#0f4fcf"/>
    </linearGradient>
    <radialGradient id="glowA" cx="20%" cy="25%" r="42%">
      <stop offset="0%" stop-color="#ffffff" stop-opacity="0.26"/>
      <stop offset="100%" stop-color="#ffffff" stop-opacity="0"/>
    </radialGradient>
    <radialGradient id="glowB" cx="82%" cy="72%" r="46%">
      <stop offset="0%" stop-color="#ffffff" stop-opacity="0.22"/>
      <stop offset="100%" stop-color="#ffffff" stop-opacity="0"/>
    </radialGradient>
    <pattern id="grid" width="34" height="34" patternUnits="userSpaceOnUse">
      <path d="M0 0H34M0 0V34" stroke="#ffffff" stroke-opacity="0.12" stroke-width="1"/>
    </pattern>
  </defs>

  <rect width="1920" height="760" fill="url(#g1)"/>
  <rect width="1920" height="760" fill="url(#grid)"/>
  <rect width="1920" height="760" fill="url(#glowA)"/>
  <rect width="1920" height="760" fill="url(#glowB)"/>

  <g stroke="#ffffff" stroke-opacity="0.11" fill="none" stroke-width="1.4">
    <path d="M120 630C430 410 840 490 1140 330C1390 200 1650 210 1860 80"/>
    <path d="M40 710C360 540 740 590 1060 450C1360 320 1630 330 1890 170"/>
    <path d="M0 760L520 330L940 760"/>
  </g>
</svg>
